HIERARCHY
ROOT joint_Root
{
	OFFSET 0.0 0.0 0.0
	CHANNELS 6 Xposition Yposition Zposition Zrotation Xrotation Yrotation 
	JOINT Hips
	{
		OFFSET 4.5925 91.4895 -427.239
		CHANNELS 6 Xposition Yposition Zposition Zrotation Xrotation Yrotation 
		JOINT Spine
		{
			OFFSET 15.7357 0.0 0.0
			CHANNELS 6 Xposition Yposition Zposition Zrotation Xrotation Yrotation 
			JOINT Chest
			{
				OFFSET 8.98455 -0.406207 0.0
				CHANNELS 6 Xposition Yposition Zposition Zrotation Xrotation Yrotation 
				JOINT Neck
				{
					OFFSET 16.3773 0.0 0.0
					CHANNELS 6 Xposition Yposition Zposition Zrotation Xrotation Yrotation 
					JOINT Head
					{
						OFFSET 6.45672 0.0 0.0
						CHANNELS 6 Xposition Yposition Zposition Zrotation Xrotation Yrotation 
						End Site
						{
							OFFSET 0.0 0.0 0.0
						}
					}
				}
				JOINT Shoulder_L
				{
					OFFSET 12.9942 -0.242716 4.98039
					CHANNELS 6 Xposition Yposition Zposition Zrotation Xrotation Yrotation 
					JOINT UpperArm_L
					{
						OFFSET 5.34809 0.0 0.0
						CHANNELS 6 Xposition Yposition Zposition Zrotation Xrotation Yrotation 
						JOINT LowerArm_L
						{
							OFFSET 24.3286 1.87007e-05 0.0
							CHANNELS 6 Xposition Yposition Zposition Zrotation Xrotation Yrotation 
							JOINT Hand_L
							{
								OFFSET 22.2916 0.0 0.0
								CHANNELS 6 Xposition Yposition Zposition Zrotation Xrotation Yrotation 
								End Site
								{
									OFFSET 0.0 0.0 0.0
								}
							}
						}
					}
				}
				JOINT Shoulder_R
				{
					OFFSET 12.9945 -0.242716 -4.98039
					CHANNELS 6 Xposition Yposition Zposition Zrotation Xrotation Yrotation 
					JOINT UpperArm_R
					{
						OFFSET -5.34813 0.0 0.0
						CHANNELS 6 Xposition Yposition Zposition Zrotation Xrotation Yrotation 
						JOINT LowerArm_R
						{
							OFFSET -24.3289 0.000322201 0.0
							CHANNELS 6 Xposition Yposition Zposition Zrotation Xrotation Yrotation 
							JOINT Hand_R
							{
								OFFSET -22.2915 -0.000108084 0.0
								CHANNELS 6 Xposition Yposition Zposition Zrotation Xrotation Yrotation 
								End Site
								{
									OFFSET 0.0 0.0 0.0
								}
							}
						}
					}
				}
			}
		}
		JOINT UpperLeg_L
		{
			OFFSET -2.19248 -6.46944 0.0
			CHANNELS 6 Xposition Yposition Zposition Zrotation Xrotation Yrotation 
			JOINT LowerLeg_L
			{
				OFFSET 39.0811 0.0 -1.23785e-05
				CHANNELS 6 Xposition Yposition Zposition Zrotation Xrotation Yrotation 
				JOINT Foot_L
				{
					OFFSET 40.9854 0.0 -1.26872e-05
					CHANNELS 6 Xposition Yposition Zposition Zrotation Xrotation Yrotation 
					JOINT Toes_L
					{
						OFFSET 11.7543 0.0 0.0
						CHANNELS 6 Xposition Yposition Zposition Zrotation Xrotation Yrotation 
						End Site
						{
							OFFSET 0.0 0.0 0.0
						}
					}
				}
			}
		}
		JOINT UpperLeg_R
		{
			OFFSET -2.19251 6.46944 0.0
			CHANNELS 6 Xposition Yposition Zposition Zrotation Xrotation Yrotation 
			JOINT LowerLeg_R
			{
				OFFSET -39.0811 -0.00228153 -0.0401928
				CHANNELS 6 Xposition Yposition Zposition Zrotation Xrotation Yrotation 
				JOINT Foot_R
				{
					OFFSET -40.9854 0.0 0.0
					CHANNELS 6 Xposition Yposition Zposition Zrotation Xrotation Yrotation 
					JOINT Toes_R
					{
						OFFSET -11.7543 0.0 0.0
						CHANNELS 6 Xposition Yposition Zposition Zrotation Xrotation Yrotation 
						End Site
						{
							OFFSET 0.0 0.0 0.0
						}
					}
				}
			}
		}
	}
}
MOTION
Frames:	4
Frame Time:	0.0333333
0.000000 0.000000 0.000000 0.000000 0.000000 -0.000000 4.078700 90.806300 -0.196121 90.005400 -8.651610 15.244300 15.735700 0.000005 -0.000001 94.370100 81.088900 -99.135600 8.984550 -0.406207 -0.000000 10.076400 1.252660 -9.635550 16.377300 -0.000001 -0.000001 27.907900 -0.949939 -3.999360 6.456720 -0.000001 -0.000000 11.460600 1.183100 -11.547300 12.994200 -0.242716 4.980390 -91.803100 6.251150 -73.875300 5.348090 -0.000007 -0.000001 -58.397100 25.696500 -13.318600 24.328600 0.000019 0.000005 11.484200 26.892300 -24.187900 22.291600 -0.000001 0.000005 10.423700 5.262020 1.112840 12.994500 -0.242716 -4.980390 91.200700 -4.255450 -74.227400 -5.348130 -0.000001 -0.000004 -42.458300 -51.831200 -78.485900 -24.328900 0.000322 -0.000009 3.045060 1.703340 -60.818200 -22.291500 -0.000108 -0.000004 25.793500 5.434430 -4.091010 -2.192480 -6.469440 -0.000000 -176.351000 -18.401900 6.482140 39.081100 -0.000007 -0.000012 -0.047421 0.083390 29.625900 40.985400 -0.000006 -0.000013 4.344640 5.083520 -71.067200 11.754300 -0.000000 0.000003 -0.000239 -0.002151 -16.658300 -2.192510 6.469440 -0.000001 168.489000 17.295500 -174.178000 -39.081100 -0.002282 -0.040193 -0.171625 0.312816 29.214300 -40.985400 0.000008 0.000006 0.758816 19.135900 -68.653500 -11.754300 -0.000006 -0.000006 -0.003537 -0.046534 -18.465800
0.000000 0.000000 0.000000 0.000000 0.000000 -0.000000 4.027870 90.814700 -0.225646 89.989900 -8.875850 15.287500 15.735700 0.000005 -0.000001 94.330900 81.074800 -99.061700 8.984550 -0.406207 -0.000000 10.104400 1.242210 -9.565460 16.377300 -0.000001 -0.000001 28.006400 -1.085450 -3.804800 6.456720 -0.000001 -0.000000 11.472200 1.022070 -11.622800 12.994200 -0.242716 4.980390 -91.789600 6.272680 -74.041100 5.348090 -0.000007 -0.000001 -58.538500 26.195500 -13.827700 24.328600 0.000019 0.000005 11.610500 26.553500 -24.684100 22.291600 -0.000001 0.000005 10.397500 5.267160 0.975096 12.994500 -0.242716 -4.980390 91.266900 -4.457170 -74.114700 -5.348130 -0.000001 -0.000004 -42.398900 -51.340400 -80.578900 -24.328900 0.000322 -0.000009 3.082220 1.554580 -63.271200 -22.291500 -0.000108 -0.000004 25.898000 5.436090 -4.149420 -2.192480 -6.469440 -0.000000 -176.239000 -18.545300 6.559430 39.081100 -0.000007 -0.000012 -0.046538 0.081931 29.597500 40.985400 -0.000006 -0.000013 4.289440 5.043120 -71.044800 11.754300 -0.000000 0.000003 -0.000250 -0.002231 -16.661200 -2.192510 6.469440 -0.000001 168.589000 17.156300 -174.191000 -39.081100 -0.002282 -0.040193 -0.168621 0.307612 29.201100 -40.985400 0.000008 0.000006 0.824503 19.211000 -68.634400 -11.754300 -0.000006 -0.000006 -0.003448 -0.045573 -18.426700
0.000000 0.000000 0.000000 0.000000 0.000000 -0.000000 3.975840 90.816600 -0.253260 89.980600 -9.081230 15.246800 15.735700 0.000005 -0.000001 94.366100 81.075800 -99.088000 8.984550 -0.406207 -0.000000 10.101900 1.253220 -9.548580 16.377300 -0.000001 -0.000001 28.014300 -1.201310 -3.653330 6.456720 -0.000001 -0.000000 11.529200 0.940283 -11.557400 12.994200 -0.242716 4.980390 -91.766700 6.245740 -74.171000 5.348090 -0.000007 -0.000001 -58.669300 26.811600 -14.350100 24.328600 0.000019 0.000005 11.641200 26.194300 -25.019500 22.291600 -0.000001 0.000005 10.509500 5.267240 0.972663 12.994500 -0.242716 -4.980390 91.310400 -4.588450 -74.043000 -5.348130 -0.000001 -0.000004 -42.067400 -50.935500 -82.381700 -24.328900 0.000322 -0.000009 3.104670 1.418370 -65.481200 -22.291500 -0.000108 -0.000004 26.044800 5.436580 -4.166440 -2.192480 -6.469440 -0.000000 -176.178000 -18.630200 6.510900 39.081100 -0.000007 -0.000012 -0.050344 0.088568 29.615000 40.985400 -0.000006 -0.000013 4.219490 4.957600 -71.032700 11.754300 -0.000000 0.000003 -0.000241 -0.002165 -16.658800 -2.192510 6.469440 -0.000001 168.705000 17.051000 -174.313000 -39.081100 -0.002282 -0.040193 -0.169624 0.308967 29.235700 -40.985400 0.000008 0.000006 0.887118 19.239600 -68.634200 -11.754300 -0.000006 -0.000006 -0.003635 -0.047588 -18.508700
0.000000 0.000000 0.000000 0.000000 0.000000 -0.000000 3.912590 90.826000 -0.280816 89.959300 -9.174290 15.272100 15.735700 0.000005 -0.000001 94.262300 81.045900 -98.983400 8.984550 -0.406207 -0.000000 10.162600 1.223020 -9.545100 16.377300 -0.000001 -0.000001 27.970500 -1.264130 -3.407000 6.456720 -0.000001 -0.000000 11.547900 0.845076 -11.619200 12.994200 -0.242716 4.980390 -91.756600 6.247040 -74.260100 5.348090 -0.000007 -0.000001 -58.802900 27.382400 -14.732800 24.328600 0.000019 0.000005 11.702100 25.937500 -25.340000 22.291600 -0.000001 0.000005 10.610000 5.268070 0.950500 12.994500 -0.242716 -4.980390 91.357000 -4.714840 -73.923200 -5.348130 -0.000001 -0.000004 -41.729900 -50.499300 -84.068500 -24.328900 0.000322 -0.000009 3.156610 1.317500 -67.378100 -22.291500 -0.000108 -0.000004 26.096400 5.436790 -4.173830 -2.192480 -6.469440 -0.000000 -176.096000 -18.659000 6.546000 39.081100 -0.000007 -0.000012 -0.050863 0.089550 29.596000 40.985400 -0.000006 -0.000013 4.154190 4.899260 -71.000700 11.754300 -0.000000 0.000003 -0.000242 -0.002172 -16.659000 -2.192510 6.469440 -0.000001 168.789000 16.998400 -174.294000 -39.081100 -0.002282 -0.040193 -0.167107 0.304851 29.205200 -40.985400 0.000008 0.000006 0.941633 19.266600 -68.623600 -11.754300 -0.000006 -0.000006 -0.003533 -0.046496 -18.464200
